<svg width="82" height="82" viewBox="0 0 82 82" fill="none" xmlns="http://www.w3.org/2000/svg">
<path d="M63.9344 18.4365L59.5724 21.8443L40.9998 35.6459L22.4272 21.708L18.0652 18.3001C17.0376 17.45 15.7831 16.9201 14.4573 16.776C13.1314 16.6319 11.7924 16.8799 10.6062 17.4894C9.41992 18.0988 8.43853 19.0429 7.7836 20.2047C7.12866 21.3664 6.82896 22.6948 6.92163 24.0253V63.5218C6.92163 64.751 7.40992 65.9298 8.27908 66.799C9.14824 67.6682 10.3271 68.1565 11.5563 68.1565H22.4272V41.8481L40.9998 55.7861L59.5724 41.8481V68.1565H70.4433C71.6725 68.1565 72.8513 67.6682 73.7205 66.799C74.5896 65.9298 75.0779 64.751 75.0779 63.5218V24.0253C75.1419 22.7063 74.8214 21.3972 74.1552 20.257C73.4891 19.1168 72.5061 18.1947 71.3258 17.6027C70.1454 17.0107 68.8185 16.7743 67.5063 16.9223C66.1941 17.0704 64.9532 17.5964 63.9344 18.4365Z" fill="black"/>
</svg>
