<svg width="77" height="78" viewBox="0 0 77 78" fill="none" xmlns="http://www.w3.org/2000/svg">
<path d="M25.025 6.47656H51.975C62.2416 6.47656 70.5833 14.8182 70.5833 25.0849V52.0349C70.5833 56.9701 68.6228 61.7032 65.133 65.193C61.6433 68.6827 56.9102 70.6432 51.975 70.6432H25.025C14.7583 70.6432 6.41663 62.3016 6.41663 52.0349V25.0849C6.41663 20.1497 8.37714 15.4166 11.8669 11.9268C15.3566 8.43708 20.0897 6.47656 25.025 6.47656ZM24.3833 12.8932C21.32 12.8932 18.3823 14.1101 16.2162 16.2761C14.0502 18.4422 12.8333 21.38 12.8333 24.4432V52.6766C12.8333 59.0611 17.9987 64.2266 24.3833 64.2266H52.6166C55.6799 64.2266 58.6177 63.0097 60.7837 60.8436C62.9498 58.6776 64.1666 55.7398 64.1666 52.6766V24.4432C64.1666 18.0586 59.0012 12.8932 52.6166 12.8932H24.3833ZM55.3437 17.7057C56.4073 17.7057 57.4274 18.1283 58.1795 18.8804C58.9316 19.6325 59.3541 20.6525 59.3541 21.7161C59.3541 22.7798 58.9316 23.7998 58.1795 24.5519C57.4274 25.304 56.4073 25.7266 55.3437 25.7266C54.2801 25.7266 53.26 25.304 52.5079 24.5519C51.7558 23.7998 51.3333 22.7798 51.3333 21.7161C51.3333 20.6525 51.7558 19.6325 52.5079 18.8804C53.26 18.1283 54.2801 17.7057 55.3437 17.7057ZM38.5 22.5182C42.7545 22.5182 46.8347 24.2083 49.8431 27.2167C52.8515 30.2251 54.5416 34.3054 54.5416 38.5599C54.5416 42.8144 52.8515 46.8947 49.8431 49.9031C46.8347 52.9115 42.7545 54.6016 38.5 54.6016C34.2454 54.6016 30.1652 52.9115 27.1568 49.9031C24.1484 46.8947 22.4583 42.8144 22.4583 38.5599C22.4583 34.3054 24.1484 30.2251 27.1568 27.2167C30.1652 24.2083 34.2454 22.5182 38.5 22.5182ZM38.5 28.9349C35.9473 28.9349 33.4991 29.949 31.6941 31.754C29.889 33.559 28.875 36.0072 28.875 38.5599C28.875 41.1126 29.889 43.5608 31.6941 45.3658C33.4991 47.1708 35.9473 48.1849 38.5 48.1849C41.0527 48.1849 43.5008 47.1708 45.3059 45.3658C47.1109 43.5608 48.125 41.1126 48.125 38.5599C48.125 36.0072 47.1109 33.559 45.3059 31.754C43.5008 29.949 41.0527 28.9349 38.5 28.9349Z" fill="black"/>
</svg>
