<svg width="77" height="77" viewBox="0 0 77 77" fill="none" xmlns="http://www.w3.org/2000/svg">
<path d="M38.328 6.4646C20.7544 6.4646 6.49182 20.7272 6.49182 38.3008C6.49182 55.8743 20.7544 70.1369 38.328 70.1369C55.9015 70.1369 70.1641 55.8743 70.1641 38.3008C70.1641 20.7272 55.9015 6.4646 38.328 6.4646ZM53.1 28.1132C52.6224 33.1433 50.5531 45.3684 49.5025 51.0034C49.0568 53.3911 48.1654 54.187 47.3376 54.2825C45.4911 54.4417 44.0903 53.0727 42.3075 51.8948C39.5059 50.0483 37.9141 48.9022 35.208 47.1194C32.0563 45.05 34.0938 43.9039 35.9084 42.0574C36.386 41.5799 44.536 34.1621 44.6952 33.4935C44.7173 33.3922 44.7144 33.2871 44.6866 33.1872C44.6589 33.0874 44.6072 32.9958 44.536 32.9204C44.345 32.7613 44.0903 32.8249 43.8675 32.8568C43.5809 32.9204 39.1239 35.8812 30.4326 41.7391C29.1592 42.5986 28.0131 43.0443 26.9943 43.0125C25.8482 42.9807 23.6833 42.3758 22.0597 41.8346C20.054 41.1978 18.4941 40.8476 18.6214 39.7334C18.6851 39.1603 19.481 38.5873 20.9773 37.9824C30.2734 33.9392 36.4496 31.265 39.5378 29.9915C48.3882 26.2985 50.2029 25.6618 51.4126 25.6618C51.6673 25.6618 52.2722 25.7255 52.6542 26.0438C52.9726 26.2985 53.0681 26.6487 53.1 26.9034C53.0681 27.0944 53.1318 27.6675 53.1 28.1132Z" fill="black"/>
</svg>
