<svg width="200" height="200" viewBox="0 0 200 200" fill="none" xmlns="http://www.w3.org/2000/svg">
<rect x="0.5" y="0.5" width="49.5415" height="49.5415" stroke="black"/>
<rect x="50.3193" y="0.5" width="49.5415" height="49.5415" stroke="black"/>
<rect x="100.139" y="0.5" width="49.5415" height="49.5415" stroke="black"/>
<rect x="149.958" y="0.5" width="49.5415" height="49.5415" stroke="black"/>
<rect x="149.958" y="50.3193" width="49.5415" height="49.5415" stroke="black"/>
<rect x="149.958" y="100.139" width="49.5415" height="49.5415" stroke="black"/>
<rect x="149.958" y="149.958" width="49.5415" height="49.5415" stroke="black"/>
<rect x="100.139" y="149.958" width="49.5415" height="49.5415" stroke="black"/>
<rect x="50.3193" y="149.958" width="49.5415" height="49.5415" stroke="black"/>
<rect x="0.5" y="149.958" width="49.5415" height="49.5415" stroke="black"/>
<rect x="0.5" y="100.139" width="49.5415" height="49.5415" stroke="black"/>
<rect x="0.5" y="50.3193" width="49.5415" height="49.5415" stroke="black"/>
<rect x="50.3193" y="50.3193" width="49.5415" height="49.5415" stroke="black"/>
<rect x="100.139" y="50.3193" width="49.5415" height="49.5415" stroke="black"/>
<rect x="100.139" y="100.139" width="49.5415" height="49.5415" stroke="black"/>
<rect x="50.3193" y="100.139" width="49.5415" height="49.5415" stroke="black"/>
</svg>
