<svg width="200" height="200" viewBox="0 0 200 200" fill="none" xmlns="http://www.w3.org/2000/svg">
<rect x="0.5" y="0.5" width="39.5498" height="39.5498" stroke="black"/>
<rect x="40.3623" y="0.5" width="39.5498" height="39.5498" stroke="black"/>
<rect x="80.2251" y="0.5" width="39.5498" height="39.5498" stroke="black"/>
<rect x="120.088" y="0.5" width="39.5498" height="39.5498" stroke="black"/>
<rect x="159.95" y="0.5" width="39.5498" height="39.5498" stroke="black"/>
<rect x="159.95" y="40.3623" width="39.5498" height="39.5498" stroke="black"/>
<rect x="159.95" y="80.2251" width="39.5498" height="39.5498" stroke="black"/>
<rect x="159.95" y="120.088" width="39.5498" height="39.5498" stroke="black"/>
<rect x="159.95" y="159.95" width="39.5498" height="39.5498" stroke="black"/>
<rect x="120.088" y="159.95" width="39.5498" height="39.5498" stroke="black"/>
<rect x="80.2251" y="159.95" width="39.5498" height="39.5498" stroke="black"/>
<rect x="40.3623" y="159.95" width="39.5498" height="39.5498" stroke="black"/>
<rect x="0.5" y="159.95" width="39.5498" height="39.5498" stroke="black"/>
<rect x="0.5" y="120.088" width="39.5498" height="39.5498" stroke="black"/>
<rect x="0.5" y="80.2251" width="39.5498" height="39.5498" stroke="black"/>
<rect x="0.5" y="40.3623" width="39.5498" height="39.5498" stroke="black"/>
<rect x="40.3623" y="40.3623" width="39.5498" height="39.5498" stroke="black"/>
<rect x="80.2251" y="40.3623" width="39.5498" height="39.5498" stroke="black"/>
<rect x="120.088" y="40.3623" width="39.5498" height="39.5498" stroke="black"/>
<rect x="120.088" y="80.2251" width="39.5498" height="39.5498" stroke="black"/>
<rect x="120.088" y="120.088" width="39.5498" height="39.5498" stroke="black"/>
<rect x="80.2251" y="120.088" width="39.5498" height="39.5498" stroke="black"/>
<rect x="40.3623" y="120.088" width="39.5498" height="39.5498" stroke="black"/>
<rect x="40.3623" y="80.2251" width="39.5498" height="39.5498" stroke="black"/>
<rect x="80.2251" y="80.2251" width="39.5498" height="39.5498" stroke="black"/>
</svg>
