<svg width="60" height="60" viewBox="0 0 60 60" fill="none" xmlns="http://www.w3.org/2000/svg">
<path fill-rule="evenodd" clip-rule="evenodd" d="M3.50806 30.0001C3.50806 22.9739 6.29917 16.2356 11.2674 11.2674C16.2356 6.29917 22.9739 3.50806 30.0001 3.50806C37.0262 3.50806 43.7645 6.29917 48.7327 11.2674C53.701 16.2356 56.4921 22.9739 56.4921 30.0001C56.4921 37.0262 53.701 43.7645 48.7327 48.7327C43.7645 53.701 37.0262 56.4921 30.0001 56.4921C22.9739 56.4921 16.2356 53.701 11.2674 48.7327C6.29917 43.7645 3.50806 37.0262 3.50806 30.0001ZM30.0001 7.30806C25.6017 7.30821 21.2982 8.58659 17.6131 10.9877C13.928 13.3888 11.0201 16.8091 9.24314 20.8325C7.4662 24.8559 6.89684 29.309 7.60431 33.6501C8.31179 37.9911 10.2656 42.033 13.2281 45.2841C15.0263 42.4668 17.5058 40.1483 20.4373 38.5431C23.3689 36.9378 26.6578 36.0976 30.0001 36.1001C33.3423 36.0976 36.6313 36.9378 39.5628 38.5431C42.4943 40.1483 44.9738 42.4668 46.7721 45.2841C49.7345 42.033 51.6883 37.9911 52.3958 33.6501C53.1033 29.309 52.5339 24.8559 50.757 20.8325C48.9801 16.8091 46.0721 13.3888 42.387 10.9877C38.7019 8.58659 34.3984 7.30821 30.0001 7.30806ZM43.9281 47.9161C42.5135 45.4757 40.4819 43.4504 38.0372 42.0434C35.5925 40.6364 32.8207 39.8972 30.0001 39.9001C27.1794 39.8972 24.4076 40.6364 21.9629 42.0434C19.5182 43.4504 17.4866 45.4757 16.0721 47.9161C20.0514 51.0182 24.9544 52.6995 30.0001 52.6921C35.2481 52.6921 40.0801 50.9081 43.9281 47.9161ZM20.6001 26.0201C20.6001 23.527 21.5904 21.1361 23.3533 19.3733C25.1161 17.6104 27.507 16.6201 30.0001 16.6201C32.4931 16.6201 34.884 17.6104 36.6469 19.3733C38.4097 21.1361 39.4001 23.527 39.4001 26.0201C39.4001 28.5131 38.4097 30.904 36.6469 32.6669C34.884 34.4297 32.4931 35.4201 30.0001 35.4201C27.507 35.4201 25.1161 34.4297 23.3533 32.6669C21.5904 30.904 20.6001 28.5131 20.6001 26.0201ZM30.0001 20.4201C29.2647 20.4201 28.5365 20.5649 27.857 20.8463C27.1776 21.1278 26.5603 21.5403 26.0403 22.0603C25.5203 22.5803 25.1078 23.1976 24.8263 23.877C24.5449 24.5565 24.4001 25.2847 24.4001 26.0201C24.4001 26.7555 24.5449 27.4837 24.8263 28.1631C25.1078 28.8425 25.5203 29.4599 26.0403 29.9799C26.5603 30.4999 27.1776 30.9124 27.857 31.1938C28.5365 31.4752 29.2647 31.6201 30.0001 31.6201C31.4853 31.6201 32.9097 31.0301 33.9599 29.9799C35.0101 28.9297 35.6001 27.5053 35.6001 26.0201C35.6001 24.5348 35.0101 23.1105 33.9599 22.0603C32.9097 21.0101 31.4853 20.4201 30.0001 20.4201Z" fill="white"/>
</svg>
