<svg width="72" height="72" viewBox="0 0 72 72" fill="none" xmlns="http://www.w3.org/2000/svg">
<path fill-rule="evenodd" clip-rule="evenodd" d="M0.677246 35.9999C0.677246 26.6318 4.39873 17.6473 11.023 11.023C17.6473 4.39873 26.6318 0.677246 35.9999 0.677246C45.3681 0.677246 54.3525 4.39873 60.9768 11.023C67.6011 17.6473 71.3226 26.6318 71.3226 35.9999C71.3226 45.3681 67.6011 54.3525 60.9768 60.9768C54.3525 67.6011 45.3681 71.3226 35.9999 71.3226C26.6318 71.3226 17.6473 67.6011 11.023 60.9768C4.39873 54.3525 0.677246 45.3681 0.677246 35.9999ZM35.9999 5.74391C30.1355 5.74412 24.3975 7.44862 19.484 10.6501C14.5705 13.8515 10.6933 18.4119 8.32402 23.7765C5.95478 29.141 5.19563 35.0785 6.13892 40.8666C7.08222 46.6547 9.6873 52.0439 13.6372 56.3786C16.0349 52.6222 19.3409 49.531 23.2496 47.3906C27.1583 45.2503 31.5436 44.13 35.9999 44.1332C40.4563 44.13 44.8415 45.2503 48.7502 47.3906C52.6589 49.531 55.9649 52.6222 58.3626 56.3786C62.3125 52.0439 64.9176 46.6547 65.8609 40.8666C66.8042 35.0785 66.0451 29.141 63.6758 23.7765C61.3066 18.4119 57.4294 13.8515 52.5159 10.6501C47.6024 7.44862 41.8644 5.74412 35.9999 5.74391ZM54.5706 59.8879C52.6845 56.6341 49.9757 53.9337 46.7161 52.0577C43.4565 50.1817 39.7608 49.1961 35.9999 49.1999C32.239 49.1961 28.5433 50.1817 25.2837 52.0577C22.0241 53.9337 19.3153 56.6341 17.4292 59.8879C22.7351 64.0241 29.2724 66.2658 35.9999 66.2559C42.9972 66.2559 49.4399 63.8773 54.5706 59.8879ZM23.4666 30.6932C23.4666 27.3692 24.7871 24.1813 27.1375 21.8308C29.488 19.4804 32.6759 18.1599 35.9999 18.1599C39.324 18.1599 42.5119 19.4804 44.8623 21.8308C47.2128 24.1813 48.5332 27.3692 48.5332 30.6932C48.5332 34.0173 47.2128 37.2052 44.8623 39.5557C42.5119 41.9061 39.324 43.2266 35.9999 43.2266C32.6759 43.2266 29.488 41.9061 27.1375 39.5557C24.7871 37.2052 23.4666 34.0173 23.4666 30.6932ZM35.9999 23.2266C35.0194 23.2266 34.0484 23.4197 33.1425 23.7949C32.2366 24.1702 31.4135 24.7202 30.7202 25.4135C30.0268 26.1069 29.4768 26.93 29.1016 27.8359C28.7264 28.7418 28.5332 29.7127 28.5332 30.6932C28.5332 31.6738 28.7264 32.6447 29.1016 33.5506C29.4768 34.4565 30.0268 35.2796 30.7202 35.973C31.4135 36.6663 32.2366 37.2163 33.1425 37.5915C34.0484 37.9668 35.0194 38.1599 35.9999 38.1599C37.9802 38.1599 39.8794 37.3732 41.2796 35.973C42.6799 34.5727 43.4666 32.6735 43.4666 30.6932C43.4666 28.713 42.6799 26.8138 41.2796 25.4135C39.8794 24.0132 37.9802 23.2266 35.9999 23.2266Z" fill="white"/>
</svg>
